<?xml version="1.0" encoding="UTF-8"?><svg id="Calque_1" xmlns="http://www.w3.org/2000/svg" viewBox="0 0 22 29"><defs><style>.cls-1{fill:#2c3333;}</style></defs><path class="cls-1" d="m11,29c-.81,0-1.5-.28-2.07-.85-.57-.57-.86-1.25-.86-2.05h5.87c0,.8-.29,1.48-.86,2.05-.57.57-1.26.85-2.07.85Zm-5.87-4.35v-2.9h11.73v2.9H5.13Zm.37-4.35c-1.69-.99-3.02-2.32-4.02-3.99-.99-1.67-1.48-3.48-1.48-5.44,0-3.02,1.07-5.59,3.21-7.7C5.35,1.06,7.94,0,11,0s5.65,1.06,7.79,3.17c2.14,2.11,3.21,4.68,3.21,7.7,0,1.96-.49,3.77-1.48,5.44-.99,1.67-2.33,3-4.02,3.99H5.5Zm.88-2.9h9.24c1.1-.77,1.95-1.73,2.55-2.86.6-1.14.9-2.36.9-3.66,0-2.22-.78-4.11-2.35-5.65s-3.47-2.32-5.72-2.32-4.16.77-5.72,2.32-2.35,3.43-2.35,5.65c0,1.31.3,2.53.9,3.66.6,1.14,1.45,2.09,2.55,2.86Z"/></svg>