<svg width="29" height="29" viewBox="0 0 29 29" fill="none" xmlns="http://www.w3.org/2000/svg">
<path d="M27.0209 18.562C24.5658 19.5493 21.8746 19.7933 19.2819 19.2636C16.6892 18.7339 14.3094 17.4539 12.4382 15.5827C10.567 13.7116 9.28702 11.3317 8.75733 8.73904C8.22764 6.14635 8.47162 3.45516 9.45892 1C6.55148 2.1711 4.14196 4.31709 2.64341 7.07008C1.14485 9.82308 0.650604 13.0116 1.24539 16.0891C1.84017 19.1666 3.48694 21.9413 5.9034 23.9377C8.31985 25.934 11.3555 27.0276 14.4899 27.031C17.1853 27.0311 19.819 26.2246 22.0522 24.7153C24.2854 23.206 26.0159 21.063 27.0209 18.562Z" stroke="#00D0FF" stroke-width="2" stroke-linecap="round" stroke-linejoin="round"/>
</svg>
