<?xml version="1.0" encoding="utf-8"?>
<!-- Generator: Adobe Illustrator 25.0.0, SVG Export Plug-In . SVG Version: 6.00 Build 0)  -->
<svg version="1.1" id="Calque_1" xmlns="http://www.w3.org/2000/svg" xmlns:xlink="http://www.w3.org/1999/xlink" x="0px" y="0px"
	 viewBox="0 0 700 700" style="enable-background:new 0 0 700 700;" xml:space="preserve">
<g>
	<path d="M109.2,496.5c-1.9,0.1-3.8-0.7-4.9-2.3c-1.1-1.5-1.4-3.6-0.7-5.3l12.3-31.7c1.1-2.9,4.4-4.3,7.2-3.2s4.3,4.4,3.2,7.3
		l-12.2,31.5C113.4,494.9,111.5,496.4,109.2,496.5L109.2,496.5z"/>
	<path d="M204.4,510.4h-1.2c-1.4-0.3-2.7-1.2-3.5-2.5c-0.8-1.3-1-2.8-0.7-4.2l7.3-32.4v0c0.7-3.1,3.7-5.1,6.8-4.4
		c3.1,0.7,5,3.7,4.4,6.8l-7.5,32.3C209.4,508.7,207.1,510.5,204.4,510.4L204.4,510.4z"/>
	<path d="M301.4,517.4h-0.4h0c-3.1-0.2-5.4-2.9-5.2-6l2.5-32.8v0c0.2-3.1,2.9-5.4,6-5.2c3.1,0.2,5.4,2.9,5.2,6l-2.5,32.8v0
		C306.8,515.1,304.3,517.4,301.4,517.4L301.4,517.4z"/>
	<path d="M398.6,517.4c-2.9,0-5.4-2.3-5.6-5.2l-2.5-32.8c-0.2-3.1,2.1-5.8,5.2-6c3.1-0.2,5.8,2.1,6,5.2l2.5,32.8
		c0.2,3.1-2.1,5.8-5.2,6L398.6,517.4z"/>
	<path d="M495.6,510.4c-2.7,0.1-5-1.8-5.6-4.4l-7.3-32.4v0c-0.3-1.5-0.1-3,0.8-4.3c0.8-1.3,2.1-2.2,3.6-2.5c3.1-0.7,6.2,1.3,6.8,4.4
		l7.3,32.4c0.3,1.4,0.1,3-0.7,4.2c-0.8,1.3-2,2.2-3.5,2.5L495.6,510.4z"/>
	<path d="M590.8,496.5c-2.3,0-4.4-1.4-5.2-3.6l-12.2-31.7h0c-1.1-2.9,0.3-6.1,3.2-7.3c2.9-1.1,6.1,0.3,7.2,3.2l12.5,31.7
		c0.7,1.8,0.4,3.8-0.7,5.3C594.6,495.8,592.7,496.7,590.8,496.5L590.8,496.5z"/>
	<path d="M598.5,330.8L534,243V57.3c0-6.6-2.6-12.9-7.3-17.5c-4.6-4.7-10.9-7.3-17.5-7.2l-294.3,1.6c-5.1,0-10.1,1.6-14.3,4.6
		l-35.3,24.8c-0.8,0.6-1.4,1.4-1.8,2.3c-6.5,5-10.3,12.8-10.4,21.1v152.5c-4.1,1.1-7.8,3.2-10.9,6.1c-5.3,4.4-8.5,10.9-8.8,17.8
		c0,10.9,9.4,19.3,17.2,22.7l-49.7,104.3c-0.9,1.8-0.8,3.8,0.3,5.5c1,1.7,2.9,2.7,4.8,2.6h404.6c0.5,0.1,1,0.1,1.5,0h0.4l1-0.5
		l83.6-59.3c1.2-0.9,2.1-2.2,2.3-3.7C599.7,333.5,599.4,332,598.5,330.8L598.5,330.8z M510.5,276.5c-1.2,0-4.7-4.6-4.7-13
		c0-8.5,3.5-13,4.7-13c2.8,0,12.2,6.2,12.2,13S513.3,276.5,510.5,276.5L510.5,276.5z M207.1,48.2c2.3-1.6,5.1-2.5,7.9-2.5L509.3,44
		c3.5,0,6.9,1.4,9.5,3.9c2.5,2.5,3.9,5.9,3.9,9.5v186.6c-3.5-2.8-7.7-4.4-12.2-4.8c-9.1,0-16,10.5-16,24.4c0,13.9,6.7,24.3,16,24.3
		l-17.2,12.1V87.1c0-7.1-2.8-14-7.9-19c-5-5-11.9-7.9-19-7.9H190L207.1,48.2z M442.3,244.8H192.1l14.7-10.4h231.6
		c0.5,0,0.9-0.1,1.4-0.3h0.4c1.2,0,2.4-0.4,3.4-1.1l38.4-27v10.8L442.3,244.8z M164.4,87.1c0-4.1,1.6-8.1,4.6-11
		c2.9-2.9,6.9-4.6,11-4.6h15.6v49.4l-20.7,14.6l-0.3,0.3h0c-0.3,0.3-0.6,0.5-0.8,0.8c-0.7,0.9-1.1,1.9-1.2,3v0.4v88.6
		c0,1.5,0.6,2.9,1.6,4c1.1,1.1,2.5,1.6,4,1.6h9l-15.7,10.8c-1.1,0.6-2.1,1.6-2.6,2.8l-4.4,9.2L164.4,87.1z M183.8,223.1l0-77.5h249
		v77.5L183.8,223.1z M251.4,95.2H482v6.9h-0.6l-45.1,32.3H196L251.4,95.2z M444.1,143.2l38-26.8v75.3l-38,26.6V143.2z M249.6,84
		c-1.2,0-2.3,0.3-3.2,1l-39.2,28V71.6h259.3c3.6,0,7.1,1.2,9.9,3.5c2.8,2.3,4.7,5.4,5.4,8.9L249.6,84z M144.7,263.2L144.7,263.2
		c0.3-3.4,1.9-6.6,4.5-8.9c1.2-1.1,2.5-2.1,3.9-2.9v23.1c-4.4-2.1-7.5-6.2-8.4-11L144.7,263.2z M114.8,387.2l62.7-131h261.6
		l62.5,131L114.8,387.2z M512.4,384.4l-62.1-131L482,231v79.5c0,1.5,0.6,2.9,1.6,4s2.5,1.6,4,1.6h0.4c1.2,0,2.3-0.3,3.2-1l40.3-28.4
		l0,0c1.5-1.1,2.4-2.8,2.4-4.6v-20l51.9,70.7L512.4,384.4z"/>
</g>
</svg>
