<svg width="29" height="29" viewBox="0 0 29 29" fill="none" xmlns="http://www.w3.org/2000/svg">
<path d="M14.5 1V2.5M14.5 26.5V28M27.625 14.5H26.1667M2.83333 14.5H1.375M23.7808 24.046L22.7498 22.9855M6.25021 6.0145L5.21917 4.954M23.7808 4.954L22.7498 6.0145M6.25021 22.9855L5.21917 24.046M20.3333 14.5C20.3333 16.0913 19.7188 17.6174 18.6248 18.7426C17.5308 19.8679 16.0471 20.5 14.5 20.5C12.9529 20.5 11.4692 19.8679 10.3752 18.7426C9.28125 17.6174 8.66667 16.0913 8.66667 14.5C8.66667 12.9087 9.28125 11.3826 10.3752 10.2574C11.4692 9.13214 12.9529 8.5 14.5 8.5C16.0471 8.5 17.5308 9.13214 18.6248 10.2574C19.7188 11.3826 20.3333 12.9087 20.3333 14.5V14.5Z" stroke="#FF9000" stroke-width="2" stroke-linecap="round" stroke-linejoin="round"/>
</svg>
