<svg width="104" height="100" viewBox="0 0 104 100" fill="none" xmlns="http://www.w3.org/2000/svg">
<path d="M1.83524 95.6998C1.44114 95.7272 1.05995 95.5499 0.82624 95.2316C0.591722 94.9132 0.536925 94.4974 0.680369 94.1291L3.22217 87.5891C3.45186 86.9927 4.12158 86.6953 4.71795 86.925C5.31433 87.1547 5.61171 87.8244 5.38204 88.4216L2.86355 94.9261C2.70962 95.3685 2.30345 95.6748 1.8352 95.6998L1.83524 95.6998Z" fill="black"/>
<path d="M21.4764 98.5656H21.2225C20.9235 98.4963 20.664 98.3117 20.502 98.0514C20.3392 97.7919 20.2869 97.4776 20.3562 97.1786L21.8697 90.4886V90.4894C22.0099 89.8511 22.6409 89.4474 23.2792 89.5884C23.9175 89.7286 24.3205 90.3597 24.1802 90.9979L22.6321 97.6638C22.5112 98.2013 22.0276 98.5785 21.4764 98.5656L21.4764 98.5656Z" fill="black"/>
<path d="M41.4869 99.9974H41.3942H41.395C40.7608 99.9483 40.2853 99.3962 40.332 98.7612L40.8406 92.0019V92.0027C40.8881 91.3644 41.4442 90.8857 42.0825 90.934C42.7199 90.9816 43.1987 91.5377 43.1511 92.1759L42.6426 98.9352V98.9344C42.5942 99.5365 42.0905 99.9999 41.4869 99.9974L41.4869 99.9974Z" fill="black"/>
<path d="M61.5449 99.9974C60.9364 99.9991 60.4319 99.5292 60.3892 98.9232L59.8806 92.1639C59.8331 91.5264 60.3118 90.9703 60.9493 90.922C61.5876 90.8744 62.1437 91.3531 62.1912 91.9906L62.6997 98.7499C62.7465 99.3841 62.271 99.937 61.6367 99.9862L61.5449 99.9974Z" fill="black"/>
<path d="M81.5553 98.5655C81.0041 98.5784 80.5205 98.2012 80.3996 97.6637L78.8861 90.9737V90.9745C78.8184 90.6683 78.8756 90.3475 79.0449 90.0832C79.2141 89.8188 79.4809 89.6327 79.7871 89.565C80.4254 89.4247 81.0564 89.8277 81.1967 90.466L82.7102 97.1559C82.7795 97.4541 82.7271 97.7685 82.5643 98.0288C82.4023 98.2883 82.1428 98.4736 81.8438 98.5421L81.5553 98.5655Z" fill="black"/>
<path d="M101.197 95.6998C100.72 95.699 100.293 95.4048 100.122 94.9608L97.6037 88.4216H97.6029C97.3732 87.8244 97.6706 87.1547 98.2678 86.925C98.8642 86.6953 99.5339 86.9927 99.7636 87.5891L102.351 94.1291C102.495 94.4974 102.44 94.9133 102.206 95.2316C101.972 95.5499 101.591 95.7272 101.197 95.6998L101.197 95.6998Z" fill="black"/>
<path d="M102.779 61.5011L89.4805 43.3848V5.08445C89.4821 3.7305 88.9414 2.43227 87.9783 1.4795C87.0257 0.513208 85.7194 -0.0211069 84.3622 0.000638727L23.6355 0.335901C22.5757 0.340736 21.5432 0.671162 20.6777 1.28367L13.3874 6.40131C13.2246 6.52381 13.0973 6.68741 13.0175 6.8752C11.6732 7.91645 10.885 9.51933 10.8802 11.2192V42.6801C10.0421 42.905 9.27163 43.3337 8.63905 43.9285C7.54381 44.844 6.88215 46.1763 6.81364 47.6028C6.81364 49.844 8.74301 51.5776 10.3717 52.282L0.123667 73.8068C-0.0584699 74.1679 -0.0383227 74.5982 0.176858 74.9408C0.392044 75.2833 0.770817 75.4888 1.17538 75.4815H84.6504C84.7536 75.496 84.8583 75.496 84.9623 75.4815H85.055L85.2629 75.3776L102.512 63.1421C102.769 62.964 102.943 62.6875 102.993 62.3789C103.043 62.0694 102.966 61.7526 102.778 61.502L102.779 61.5011ZM84.6393 50.3052C84.3968 50.3052 83.669 49.3574 83.669 47.6134C83.669 45.8686 84.3968 44.9329 84.6393 44.9329C85.2172 44.9329 87.1465 46.2039 87.1465 47.6134C87.1465 49.0229 85.2171 50.3052 84.6393 50.3052ZM22.031 3.18903C22.5073 2.85296 23.0763 2.67083 23.6597 2.66922L84.3865 2.33396C85.115 2.34202 85.813 2.62732 86.3392 3.13101C86.859 3.64761 87.15 4.35118 87.1476 5.08374V43.5801C86.4279 43.0111 85.5551 42.6686 84.6404 42.5976C82.757 42.5976 81.3361 44.7584 81.3361 47.6233C81.3361 50.4892 82.711 52.6378 84.6404 52.6378L81.0937 55.1338V11.2299C81.0937 9.75913 80.5094 8.34874 79.4697 7.3083C78.4293 6.26865 77.0189 5.68437 75.5481 5.68437H18.4958L22.031 3.18903ZM70.5563 43.765H18.9342L21.9726 41.6278H69.7593C69.8576 41.6205 69.9543 41.6012 70.0478 41.5698H70.1405C70.3887 41.573 70.6321 41.4964 70.8336 41.3505L78.759 35.7703V37.9891L70.5563 43.765ZM13.2255 11.2188C13.2255 10.367 13.564 9.55057 14.1668 8.94769C14.7688 8.34567 15.586 8.00719 16.4379 8.00719H19.6616V18.1973L15.3869 21.213L15.3176 21.2823H15.3168C15.2572 21.3347 15.2032 21.3927 15.1556 21.4556C15.017 21.6321 14.9324 21.8448 14.913 22.0681V22.1608V40.4502C14.913 40.7564 15.0347 41.0498 15.2507 41.2666C15.4675 41.4834 15.7617 41.605 16.0679 41.605H17.928L14.693 43.8351C14.4584 43.9689 14.269 44.1704 14.1498 44.4129L13.2487 46.3077L13.2255 11.2188ZM17.2228 39.2818L17.2236 23.2924H68.5919V39.2826L17.2228 39.2818ZM31.1685 12.8941H78.7571V14.327H78.6298L69.3181 20.9815H19.7407L31.1685 12.8941ZM70.9254 22.8069L78.7589 17.2838V32.8243L70.9254 38.3119V22.8069ZM30.8012 10.5836C30.5611 10.582 30.3274 10.6545 30.1307 10.7915L22.0434 16.5683V8.01841H75.5491C76.2897 8.0168 77.0086 8.27148 77.5832 8.7389C78.1587 9.20633 78.5536 9.85833 78.7035 10.5836L30.8012 10.5836ZM9.16086 47.5552H9.16006C9.22131 46.8444 9.55657 46.1852 10.0957 45.7185C10.3351 45.4848 10.6027 45.2833 10.8936 45.1173V49.8778C9.9829 49.4483 9.33736 48.6037 9.16008 47.6131L9.16086 47.5552ZM2.99081 73.1341L15.9193 46.0986H69.8975L82.7914 73.1341H2.99081ZM85.0216 72.5563L72.2196 45.5332L78.7588 40.9121V57.3183C78.7588 57.6245 78.8804 57.9187 79.0972 58.1355C79.314 58.3522 79.6082 58.474 79.9144 58.474H79.995C80.2344 58.4756 80.4689 58.403 80.6655 58.266L88.973 52.4085L88.9722 52.4077C89.2865 52.1901 89.4727 51.8315 89.4695 51.4487V47.3241L100.179 61.9161L85.0216 72.5563Z" fill="black"/>
</svg>
